
    <svg
        width="1200"
        height="420"
        viewBox="0 0 1200 420"
        fill="none"
        xmlns="http://www.w3.org/2000/svg">
            <rect xmlns="http://www.w3.org/2000/svg" data-testid="card_bg" id="cardBg"
            x="0" y="0" rx="0" height="100%" stroke="#E4E2E2" fill-opacity="1"
            width="100%" fill="#1a1b27" stroke-opacity="1" style="stroke:#0000; stroke-width:1;"/>

            <style>
                body {
                    font: 600 18px 'Segoe UI', Ubuntu, Sans-Serif;
                }
                .header {
                    font: 600 20px 'Segoe UI', Ubuntu, Sans-Serif;
                    text-align: center;
                    color: #70a5fd;
                    margin-top: 20px;
                }
                svg {
                    font: 600 18px 'Segoe UI', Ubuntu, Sans-Serif;
                    user-select: none;
                }
                
    .ct-label {
      fill: #70a5fd;
      color: #70a5fd;
      font-size: .75rem;
      line-height: 1;
    }

    .ct-grid-background,
    .ct-line {
      fill: none;
    }

    .ct-chart-bar .ct-label,
    .ct-chart-line .ct-label {
      display: block;
      display: -webkit-box;
      display: -moz-box;
      display: -ms-flexbox;
      display: -webkit-flex;
      display: flex;
    }

    .ct-label.ct-horizontal.ct-start {
      -webkit-box-align: flex-end;
      -webkit-align-items: flex-end;
      -ms-flex-align: flex-end;
      align-items: flex-end;
      -webkit-box-pack: flex-start;
      -webkit-justify-content: flex-start;
      -ms-flex-pack: flex-start;
      justify-content: flex-start;
      text-align: left;
      text-anchor: start;
    }

    .ct-label.ct-horizontal.ct-end {
      -webkit-box-align: flex-start;
      -webkit-align-items: flex-start;
      -ms-flex-align: flex-start;
      align-items: flex-start;
      -webkit-box-pack: flex-start;
      -webkit-justify-content: flex-start;
      -ms-flex-pack: flex-start;
      justify-content: flex-start;
      text-align: left;
      text-anchor: start;
    }

    .ct-label.ct-vertical.ct-start {
      -webkit-box-align: flex-end;
      -webkit-align-items: flex-end;
      -ms-flex-align: flex-end;
      align-items: flex-end;
      -webkit-box-pack: flex-end;
      -webkit-justify-content: flex-end;
      -ms-flex-pack: flex-end;
      justify-content: flex-end;
      text-align: right;
      text-anchor: end;
    }

    .ct-label.ct-vertical.ct-end {
      -webkit-box-align: flex-end;
      -webkit-align-items: flex-end;
      -ms-flex-align: flex-end;
      align-items: flex-end;
      -webkit-box-pack: flex-start;
      -webkit-justify-content: flex-start;
      -ms-flex-pack: flex-start;
      justify-content: flex-start;
      text-align: left;
      text-anchor: start;
    }

    .ct-grid {
      stroke: #70a5fd;
      stroke-width: 1px;
      stroke-opacity: 0.3;
      stroke-dasharray: 2px;
    }

    .ct-point {
      stroke-width: 10px;
      stroke-linecap: round;
      stroke: #a9b1d6;
      animation: blink 1s ease-in-out forwards;
    }

    .ct-line {
      stroke-width: 4px;
      stroke-dasharray: 5000;
      stroke-dashoffset: 5000;
      stroke: #70a5fd;
      animation: dash 5s ease-in-out forwards;
    }

    .ct-area {
      stroke: none;
      fill-opacity: 0.1;
    }

    .ct-series-a .ct-area,
    .ct-series-a .ct-slice-pie {
      fill: #70a5fd;
    }

    .ct-label .ct-horizontal {
      transform: rotate(-90deg)
    }
    
                
        @keyframes blink {
            from {
                opacity: 0;
                transform:translateX(-20px); 
            }
            to {
                opacity:1;
                transform: translateX(0);
            }
        }
    
                
        @keyframes dash {
            to {
                stroke-dashoffset: 0;
            }
        }
    
    
            </style>

            <foreignObject x="0" y="0" width="1200" height="50">
                <h1 xmlns="http://www.w3.org/1999/xhtml" class="header">
                    Elroy Kimbi's Contribution Graph
                </h1>
            </foreignObject>
            <svg xmlns:ct="http://gionkunz.github.com/chartist-js/ct" width="1200" height="420" class="ct-chart-line"><g class="ct-grids"><line x1="90" x2="90" y1="80" y2="350" class="ct-grid ct-horizontal"></line><line x1="125.33333333333334" x2="125.33333333333334" y1="80" y2="350" class="ct-grid ct-horizontal"></line><line x1="160.66666666666669" x2="160.66666666666669" y1="80" y2="350" class="ct-grid ct-horizontal"></line><line x1="196" x2="196" y1="80" y2="350" class="ct-grid ct-horizontal"></line><line x1="231.33333333333334" x2="231.33333333333334" y1="80" y2="350" class="ct-grid ct-horizontal"></line><line x1="266.6666666666667" x2="266.6666666666667" y1="80" y2="350" class="ct-grid ct-horizontal"></line><line x1="302" x2="302" y1="80" y2="350" class="ct-grid ct-horizontal"></line><line x1="337.33333333333337" x2="337.33333333333337" y1="80" y2="350" class="ct-grid ct-horizontal"></line><line x1="372.6666666666667" x2="372.6666666666667" y1="80" y2="350" class="ct-grid ct-horizontal"></line><line x1="408" x2="408" y1="80" y2="350" class="ct-grid ct-horizontal"></line><line x1="443.33333333333337" x2="443.33333333333337" y1="80" y2="350" class="ct-grid ct-horizontal"></line><line x1="478.6666666666667" x2="478.6666666666667" y1="80" y2="350" class="ct-grid ct-horizontal"></line><line x1="514" x2="514" y1="80" y2="350" class="ct-grid ct-horizontal"></line><line x1="549.3333333333334" x2="549.3333333333334" y1="80" y2="350" class="ct-grid ct-horizontal"></line><line x1="584.6666666666667" x2="584.6666666666667" y1="80" y2="350" class="ct-grid ct-horizontal"></line><line x1="620" x2="620" y1="80" y2="350" class="ct-grid ct-horizontal"></line><line x1="655.3333333333334" x2="655.3333333333334" y1="80" y2="350" class="ct-grid ct-horizontal"></line><line x1="690.6666666666667" x2="690.6666666666667" y1="80" y2="350" class="ct-grid ct-horizontal"></line><line x1="726" x2="726" y1="80" y2="350" class="ct-grid ct-horizontal"></line><line x1="761.3333333333334" x2="761.3333333333334" y1="80" y2="350" class="ct-grid ct-horizontal"></line><line x1="796.6666666666667" x2="796.6666666666667" y1="80" y2="350" class="ct-grid ct-horizontal"></line><line x1="832" x2="832" y1="80" y2="350" class="ct-grid ct-horizontal"></line><line x1="867.3333333333334" x2="867.3333333333334" y1="80" y2="350" class="ct-grid ct-horizontal"></line><line x1="902.6666666666667" x2="902.6666666666667" y1="80" y2="350" class="ct-grid ct-horizontal"></line><line x1="938" x2="938" y1="80" y2="350" class="ct-grid ct-horizontal"></line><line x1="973.3333333333334" x2="973.3333333333334" y1="80" y2="350" class="ct-grid ct-horizontal"></line><line x1="1008.6666666666667" x2="1008.6666666666667" y1="80" y2="350" class="ct-grid ct-horizontal"></line><line x1="1044" x2="1044" y1="80" y2="350" class="ct-grid ct-horizontal"></line><line x1="1079.3333333333335" x2="1079.3333333333335" y1="80" y2="350" class="ct-grid ct-horizontal"></line><line x1="1114.6666666666667" x2="1114.6666666666667" y1="80" y2="350" class="ct-grid ct-horizontal"></line><line x1="1150" x2="1150" y1="80" y2="350" class="ct-grid ct-horizontal"></line><line y1="350" y2="350" x1="90" x2="1150" class="ct-grid ct-vertical"></line><line y1="327.5" y2="327.5" x1="90" x2="1150" class="ct-grid ct-vertical"></line><line y1="305" y2="305" x1="90" x2="1150" class="ct-grid ct-vertical"></line><line y1="282.5" y2="282.5" x1="90" x2="1150" class="ct-grid ct-vertical"></line><line y1="260" y2="260" x1="90" x2="1150" class="ct-grid ct-vertical"></line><line y1="237.5" y2="237.5" x1="90" x2="1150" class="ct-grid ct-vertical"></line><line y1="215" y2="215" x1="90" x2="1150" class="ct-grid ct-vertical"></line><line y1="192.5" y2="192.5" x1="90" x2="1150" class="ct-grid ct-vertical"></line><line y1="170" y2="170" x1="90" x2="1150" class="ct-grid ct-vertical"></line><line y1="147.5" y2="147.5" x1="90" x2="1150" class="ct-grid ct-vertical"></line><line y1="125" y2="125" x1="90" x2="1150" class="ct-grid ct-vertical"></line><line y1="102.5" y2="102.5" x1="90" x2="1150" class="ct-grid ct-vertical"></line><line y1="80" y2="80" x1="90" x2="1150" class="ct-grid ct-vertical"></line></g><g><g class="ct-series ct-series-a"><path d="M90,350L90,208.7C101.778,170,113.556,92.6,125.333,92.6C137.111,92.6,148.889,260,160.667,260C172.444,260,184.222,243.8,196,243.8C207.778,243.8,219.556,300.5,231.333,300.5C243.111,300.5,254.889,285.5,266.667,278C278.444,270.5,290.222,255.5,302,255.5C313.778,255.5,325.556,336.5,337.333,336.5C349.111,336.5,360.889,333.8,372.667,333.8C384.444,333.8,396.222,350,408,350C419.778,350,431.556,350,443.333,350C455.111,350,466.889,275.3,478.667,275.3C490.444,275.3,502.222,298.7,514,298.7C525.778,298.7,537.556,293.3,549.333,293.3C561.111,293.3,572.889,298.329,584.667,303.2C596.444,308.071,608.222,331.1,620,331.1C631.778,331.1,643.556,271.7,655.333,271.7C667.111,271.7,678.889,298.7,690.667,298.7C702.444,298.7,714.222,191.6,726,191.6C737.778,191.6,749.556,292.4,761.333,292.4C773.111,292.4,784.889,213.2,796.667,213.2C808.444,213.2,820.222,250.093,832,262.7C843.778,275.307,855.556,293.3,867.333,293.3C879.111,293.3,890.889,250.1,902.667,250.1C914.444,250.1,926.222,305.304,938,308.6C949.778,311.896,961.556,314,973.333,314C985.111,314,996.889,307.978,1008.667,298.7C1020.444,289.422,1032.222,144.8,1044,144.8C1055.778,144.8,1067.556,333.244,1079.333,335.6C1091.111,337.956,1102.889,337.4,1114.667,339.2C1126.444,341,1138.222,346.4,1150,350L1150,350Z" class="ct-area"></path><path d="M90,208.7C101.778,170,113.556,92.6,125.333,92.6C137.111,92.6,148.889,260,160.667,260C172.444,260,184.222,243.8,196,243.8C207.778,243.8,219.556,300.5,231.333,300.5C243.111,300.5,254.889,285.5,266.667,278C278.444,270.5,290.222,255.5,302,255.5C313.778,255.5,325.556,336.5,337.333,336.5C349.111,336.5,360.889,333.8,372.667,333.8C384.444,333.8,396.222,350,408,350C419.778,350,431.556,350,443.333,350C455.111,350,466.889,275.3,478.667,275.3C490.444,275.3,502.222,298.7,514,298.7C525.778,298.7,537.556,293.3,549.333,293.3C561.111,293.3,572.889,298.329,584.667,303.2C596.444,308.071,608.222,331.1,620,331.1C631.778,331.1,643.556,271.7,655.333,271.7C667.111,271.7,678.889,298.7,690.667,298.7C702.444,298.7,714.222,191.6,726,191.6C737.778,191.6,749.556,292.4,761.333,292.4C773.111,292.4,784.889,213.2,796.667,213.2C808.444,213.2,820.222,250.093,832,262.7C843.778,275.307,855.556,293.3,867.333,293.3C879.111,293.3,890.889,250.1,902.667,250.1C914.444,250.1,926.222,305.304,938,308.6C949.778,311.896,961.556,314,973.333,314C985.111,314,996.889,307.978,1008.667,298.7C1020.444,289.422,1032.222,144.8,1044,144.8C1055.778,144.8,1067.556,333.244,1079.333,335.6C1091.111,337.956,1102.889,337.4,1114.667,339.2C1126.444,341,1138.222,346.4,1150,350" class="ct-line"></path><line x1="90" y1="208.7" x2="90.01" y2="208.7" class="ct-point" ct:value="157"></line><line x1="125.33333333333334" y1="92.60000000000002" x2="125.34333333333335" y2="92.60000000000002" class="ct-point" ct:value="286"></line><line x1="160.66666666666669" y1="260" x2="160.67666666666668" y2="260" class="ct-point" ct:value="100"></line><line x1="196" y1="243.8" x2="196.01" y2="243.8" class="ct-point" ct:value="118"></line><line x1="231.33333333333334" y1="300.5" x2="231.34333333333333" y2="300.5" class="ct-point" ct:value="55"></line><line x1="266.6666666666667" y1="278" x2="266.6766666666667" y2="278" class="ct-point" ct:value="80"></line><line x1="302" y1="255.5" x2="302.01" y2="255.5" class="ct-point" ct:value="105"></line><line x1="337.33333333333337" y1="336.5" x2="337.34333333333336" y2="336.5" class="ct-point" ct:value="15"></line><line x1="372.6666666666667" y1="333.8" x2="372.6766666666667" y2="333.8" class="ct-point" ct:value="18"></line><line x1="408" y1="350" x2="408.01" y2="350" class="ct-point" ct:value="0"></line><line x1="443.33333333333337" y1="350" x2="443.34333333333336" y2="350" class="ct-point" ct:value="0"></line><line x1="478.6666666666667" y1="275.3" x2="478.6766666666667" y2="275.3" class="ct-point" ct:value="83"></line><line x1="514" y1="298.7" x2="514.01" y2="298.7" class="ct-point" ct:value="57"></line><line x1="549.3333333333334" y1="293.3" x2="549.3433333333334" y2="293.3" class="ct-point" ct:value="63"></line><line x1="584.6666666666667" y1="303.2" x2="584.6766666666667" y2="303.2" class="ct-point" ct:value="52"></line><line x1="620" y1="331.1" x2="620.01" y2="331.1" class="ct-point" ct:value="21"></line><line x1="655.3333333333334" y1="271.7" x2="655.3433333333334" y2="271.7" class="ct-point" ct:value="87"></line><line x1="690.6666666666667" y1="298.7" x2="690.6766666666667" y2="298.7" class="ct-point" ct:value="57"></line><line x1="726" y1="191.6" x2="726.01" y2="191.6" class="ct-point" ct:value="176"></line><line x1="761.3333333333334" y1="292.4" x2="761.3433333333334" y2="292.4" class="ct-point" ct:value="64"></line><line x1="796.6666666666667" y1="213.2" x2="796.6766666666667" y2="213.2" class="ct-point" ct:value="152"></line><line x1="832" y1="262.7" x2="832.01" y2="262.7" class="ct-point" ct:value="97"></line><line x1="867.3333333333334" y1="293.3" x2="867.3433333333334" y2="293.3" class="ct-point" ct:value="63"></line><line x1="902.6666666666667" y1="250.1" x2="902.6766666666667" y2="250.1" class="ct-point" ct:value="111"></line><line x1="938" y1="308.6" x2="938.01" y2="308.6" class="ct-point" ct:value="46"></line><line x1="973.3333333333334" y1="314" x2="973.3433333333334" y2="314" class="ct-point" ct:value="40"></line><line x1="1008.6666666666667" y1="298.7" x2="1008.6766666666667" y2="298.7" class="ct-point" ct:value="57"></line><line x1="1044" y1="144.8" x2="1044.01" y2="144.8" class="ct-point" ct:value="228"></line><line x1="1079.3333333333335" y1="335.6" x2="1079.3433333333335" y2="335.6" class="ct-point" ct:value="16"></line><line x1="1114.6666666666667" y1="339.2" x2="1114.6766666666667" y2="339.2" class="ct-point" ct:value="12"></line><line x1="1150" y1="350" x2="1150.01" y2="350" class="ct-point" ct:value="0"></line></g></g><g class="ct-labels"><text x="85.5" y="370" width="35.333333333333336" height="40" class="ct-label ct-horizontal ct-end">23</text><text x="120.83333333333334" y="370" width="35.333333333333336" height="40" class="ct-label ct-horizontal ct-end">24</text><text x="156.16666666666669" y="370" width="35.33333333333333" height="40" class="ct-label ct-horizontal ct-end">25</text><text x="191.5" y="370" width="35.33333333333334" height="40" class="ct-label ct-horizontal ct-end">26</text><text x="226.83333333333334" y="370" width="35.33333333333334" height="40" class="ct-label ct-horizontal ct-end">27</text><text x="262.1666666666667" y="370" width="35.333333333333314" height="40" class="ct-label ct-horizontal ct-end">28</text><text x="297.5" y="370" width="35.33333333333334" height="40" class="ct-label ct-horizontal ct-end">29</text><text x="332.83333333333337" y="370" width="35.33333333333334" height="40" class="ct-label ct-horizontal ct-end">30</text><text x="368.1666666666667" y="370" width="35.333333333333314" height="40" class="ct-label ct-horizontal ct-end">1</text><text x="403.5" y="370" width="35.33333333333337" height="40" class="ct-label ct-horizontal ct-end">2</text><text x="438.83333333333337" y="370" width="35.333333333333314" height="40" class="ct-label ct-horizontal ct-end">3</text><text x="474.1666666666667" y="370" width="35.333333333333314" height="40" class="ct-label ct-horizontal ct-end">4</text><text x="509.5" y="370" width="35.33333333333337" height="40" class="ct-label ct-horizontal ct-end">5</text><text x="544.8333333333334" y="370" width="35.333333333333314" height="40" class="ct-label ct-horizontal ct-end">6</text><text x="580.1666666666667" y="370" width="35.333333333333314" height="40" class="ct-label ct-horizontal ct-end">7</text><text x="615.5" y="370" width="35.33333333333337" height="40" class="ct-label ct-horizontal ct-end">8</text><text x="650.8333333333334" y="370" width="35.33333333333337" height="40" class="ct-label ct-horizontal ct-end">9</text><text x="686.1666666666667" y="370" width="35.33333333333326" height="40" class="ct-label ct-horizontal ct-end">10</text><text x="721.5" y="370" width="35.33333333333337" height="40" class="ct-label ct-horizontal ct-end">11</text><text x="756.8333333333334" y="370" width="35.33333333333337" height="40" class="ct-label ct-horizontal ct-end">12</text><text x="792.1666666666667" y="370" width="35.33333333333326" height="40" class="ct-label ct-horizontal ct-end">13</text><text x="827.5" y="370" width="35.33333333333337" height="40" class="ct-label ct-horizontal ct-end">14</text><text x="862.8333333333334" y="370" width="35.33333333333337" height="40" class="ct-label ct-horizontal ct-end">15</text><text x="898.1666666666667" y="370" width="35.33333333333326" height="40" class="ct-label ct-horizontal ct-end">16</text><text x="933.5" y="370" width="35.33333333333337" height="40" class="ct-label ct-horizontal ct-end">17</text><text x="968.8333333333334" y="370" width="35.33333333333337" height="40" class="ct-label ct-horizontal ct-end">18</text><text x="1004.1666666666667" y="370" width="35.33333333333337" height="40" class="ct-label ct-horizontal ct-end">19</text><text x="1039.5" y="370" width="35.33333333333326" height="40" class="ct-label ct-horizontal ct-end">20</text><text x="1074.8333333333335" y="370" width="35.33333333333337" height="40" class="ct-label ct-horizontal ct-end">21</text><text x="1110.1666666666667" y="370" width="35.33333333333326" height="40" class="ct-label ct-horizontal ct-end">22</text><text x="1145.5" y="370" width="30" height="40" class="ct-label ct-horizontal ct-end">23</text><text y="354.5" x="80" height="22.5" width="60" class="ct-label ct-vertical ct-start">0</text><text y="332" x="80" height="22.5" width="60" class="ct-label ct-vertical ct-start">25</text><text y="309.5" x="80" height="22.5" width="60" class="ct-label ct-vertical ct-start">50</text><text y="287" x="80" height="22.5" width="60" class="ct-label ct-vertical ct-start">75</text><text y="264.5" x="80" height="22.5" width="60" class="ct-label ct-vertical ct-start">100</text><text y="242" x="80" height="22.5" width="60" class="ct-label ct-vertical ct-start">125</text><text y="219.5" x="80" height="22.5" width="60" class="ct-label ct-vertical ct-start">150</text><text y="197" x="80" height="22.5" width="60" class="ct-label ct-vertical ct-start">175</text><text y="174.5" x="80" height="22.5" width="60" class="ct-label ct-vertical ct-start">200</text><text y="152" x="80" height="22.5" width="60" class="ct-label ct-vertical ct-start">225</text><text y="129.5" x="80" height="22.5" width="60" class="ct-label ct-vertical ct-start">250</text><text y="107" x="80" height="22.5" width="60" class="ct-label ct-vertical ct-start">275</text><text y="84.5" x="80" height="30" width="60" class="ct-label ct-vertical ct-start">300</text></g><text class="ct-axis-title ct-label" x="620" y="400" dominant-baseline="text-after-edge" text-anchor="middle">Days</text><text class="ct-axis-title ct-label" x="20" y="215" transform="rotate(-90, 20, 215)" dominant-baseline="hanging" text-anchor="middle">Contributions</text></svg>
    </svg>
