
    <svg
        width="1200"
        height="420"
        viewBox="0 0 1200 420"
        fill="none"
        xmlns="http://www.w3.org/2000/svg">
            <rect xmlns="http://www.w3.org/2000/svg" data-testid="card_bg" id="cardBg"
            x="0" y="0" rx="0" height="100%" stroke="#E4E2E2" fill-opacity="1"
            width="100%" fill="#1a1b27" stroke-opacity="1" style="stroke:#0000; stroke-width:1;"/>

            <style>
                body {
                    font: 600 18px 'Segoe UI', Ubuntu, Sans-Serif;
                }
                .header {
                    font: 600 20px 'Segoe UI', Ubuntu, Sans-Serif;
                    text-align: center;
                    color: #70a5fd;
                    margin-top: 20px;
                }
                svg {
                    font: 600 18px 'Segoe UI', Ubuntu, Sans-Serif;
                    user-select: none;
                }
                
    .ct-label {
      fill: #70a5fd;
      color: #70a5fd;
      font-size: .75rem;
      line-height: 1;
    }

    .ct-grid-background,
    .ct-line {
      fill: none;
    }

    .ct-chart-bar .ct-label,
    .ct-chart-line .ct-label {
      display: block;
      display: -webkit-box;
      display: -moz-box;
      display: -ms-flexbox;
      display: -webkit-flex;
      display: flex;
    }

    .ct-label.ct-horizontal.ct-start {
      -webkit-box-align: flex-end;
      -webkit-align-items: flex-end;
      -ms-flex-align: flex-end;
      align-items: flex-end;
      -webkit-box-pack: flex-start;
      -webkit-justify-content: flex-start;
      -ms-flex-pack: flex-start;
      justify-content: flex-start;
      text-align: left;
      text-anchor: start;
    }

    .ct-label.ct-horizontal.ct-end {
      -webkit-box-align: flex-start;
      -webkit-align-items: flex-start;
      -ms-flex-align: flex-start;
      align-items: flex-start;
      -webkit-box-pack: flex-start;
      -webkit-justify-content: flex-start;
      -ms-flex-pack: flex-start;
      justify-content: flex-start;
      text-align: left;
      text-anchor: start;
    }

    .ct-label.ct-vertical.ct-start {
      -webkit-box-align: flex-end;
      -webkit-align-items: flex-end;
      -ms-flex-align: flex-end;
      align-items: flex-end;
      -webkit-box-pack: flex-end;
      -webkit-justify-content: flex-end;
      -ms-flex-pack: flex-end;
      justify-content: flex-end;
      text-align: right;
      text-anchor: end;
    }

    .ct-label.ct-vertical.ct-end {
      -webkit-box-align: flex-end;
      -webkit-align-items: flex-end;
      -ms-flex-align: flex-end;
      align-items: flex-end;
      -webkit-box-pack: flex-start;
      -webkit-justify-content: flex-start;
      -ms-flex-pack: flex-start;
      justify-content: flex-start;
      text-align: left;
      text-anchor: start;
    }

    .ct-grid {
      stroke: #70a5fd;
      stroke-width: 1px;
      stroke-opacity: 0.3;
      stroke-dasharray: 2px;
    }

    .ct-point {
      stroke-width: 10px;
      stroke-linecap: round;
      stroke: #a9b1d6;
      animation: blink 1s ease-in-out forwards;
    }

    .ct-line {
      stroke-width: 4px;
      stroke-dasharray: 5000;
      stroke-dashoffset: 5000;
      stroke: #70a5fd;
      animation: dash 5s ease-in-out forwards;
    }

    .ct-area {
      stroke: none;
      fill-opacity: 0.1;
    }

    .ct-series-a .ct-area,
    .ct-series-a .ct-slice-pie {
      fill: #70a5fd;
    }

    .ct-label .ct-horizontal {
      transform: rotate(-90deg)
    }
    
                
        @keyframes blink {
            from {
                opacity: 0;
                transform:translateX(-20px); 
            }
            to {
                opacity:1;
                transform: translateX(0);
            }
        }
    
                
        @keyframes dash {
            to {
                stroke-dashoffset: 0;
            }
        }
    
    
            </style>

            <foreignObject x="0" y="0" width="1200" height="50">
                <h1 xmlns="http://www.w3.org/1999/xhtml" class="header">
                    Elroy Kimbi's Contribution Graph
                </h1>
            </foreignObject>
            <svg xmlns:ct="http://gionkunz.github.com/chartist-js/ct" width="1200" height="420" class="ct-chart-line"><g class="ct-grids"><line x1="90" x2="90" y1="80" y2="350" class="ct-grid ct-horizontal"></line><line x1="125.33333333333334" x2="125.33333333333334" y1="80" y2="350" class="ct-grid ct-horizontal"></line><line x1="160.66666666666669" x2="160.66666666666669" y1="80" y2="350" class="ct-grid ct-horizontal"></line><line x1="196" x2="196" y1="80" y2="350" class="ct-grid ct-horizontal"></line><line x1="231.33333333333334" x2="231.33333333333334" y1="80" y2="350" class="ct-grid ct-horizontal"></line><line x1="266.6666666666667" x2="266.6666666666667" y1="80" y2="350" class="ct-grid ct-horizontal"></line><line x1="302" x2="302" y1="80" y2="350" class="ct-grid ct-horizontal"></line><line x1="337.33333333333337" x2="337.33333333333337" y1="80" y2="350" class="ct-grid ct-horizontal"></line><line x1="372.6666666666667" x2="372.6666666666667" y1="80" y2="350" class="ct-grid ct-horizontal"></line><line x1="408" x2="408" y1="80" y2="350" class="ct-grid ct-horizontal"></line><line x1="443.33333333333337" x2="443.33333333333337" y1="80" y2="350" class="ct-grid ct-horizontal"></line><line x1="478.6666666666667" x2="478.6666666666667" y1="80" y2="350" class="ct-grid ct-horizontal"></line><line x1="514" x2="514" y1="80" y2="350" class="ct-grid ct-horizontal"></line><line x1="549.3333333333334" x2="549.3333333333334" y1="80" y2="350" class="ct-grid ct-horizontal"></line><line x1="584.6666666666667" x2="584.6666666666667" y1="80" y2="350" class="ct-grid ct-horizontal"></line><line x1="620" x2="620" y1="80" y2="350" class="ct-grid ct-horizontal"></line><line x1="655.3333333333334" x2="655.3333333333334" y1="80" y2="350" class="ct-grid ct-horizontal"></line><line x1="690.6666666666667" x2="690.6666666666667" y1="80" y2="350" class="ct-grid ct-horizontal"></line><line x1="726" x2="726" y1="80" y2="350" class="ct-grid ct-horizontal"></line><line x1="761.3333333333334" x2="761.3333333333334" y1="80" y2="350" class="ct-grid ct-horizontal"></line><line x1="796.6666666666667" x2="796.6666666666667" y1="80" y2="350" class="ct-grid ct-horizontal"></line><line x1="832" x2="832" y1="80" y2="350" class="ct-grid ct-horizontal"></line><line x1="867.3333333333334" x2="867.3333333333334" y1="80" y2="350" class="ct-grid ct-horizontal"></line><line x1="902.6666666666667" x2="902.6666666666667" y1="80" y2="350" class="ct-grid ct-horizontal"></line><line x1="938" x2="938" y1="80" y2="350" class="ct-grid ct-horizontal"></line><line x1="973.3333333333334" x2="973.3333333333334" y1="80" y2="350" class="ct-grid ct-horizontal"></line><line x1="1008.6666666666667" x2="1008.6666666666667" y1="80" y2="350" class="ct-grid ct-horizontal"></line><line x1="1044" x2="1044" y1="80" y2="350" class="ct-grid ct-horizontal"></line><line x1="1079.3333333333335" x2="1079.3333333333335" y1="80" y2="350" class="ct-grid ct-horizontal"></line><line x1="1114.6666666666667" x2="1114.6666666666667" y1="80" y2="350" class="ct-grid ct-horizontal"></line><line x1="1150" x2="1150" y1="80" y2="350" class="ct-grid ct-horizontal"></line><line y1="350" y2="350" x1="90" x2="1150" class="ct-grid ct-vertical"></line><line y1="323" y2="323" x1="90" x2="1150" class="ct-grid ct-vertical"></line><line y1="296" y2="296" x1="90" x2="1150" class="ct-grid ct-vertical"></line><line y1="269" y2="269" x1="90" x2="1150" class="ct-grid ct-vertical"></line><line y1="242" y2="242" x1="90" x2="1150" class="ct-grid ct-vertical"></line><line y1="215" y2="215" x1="90" x2="1150" class="ct-grid ct-vertical"></line><line y1="188" y2="188" x1="90" x2="1150" class="ct-grid ct-vertical"></line><line y1="161" y2="161" x1="90" x2="1150" class="ct-grid ct-vertical"></line><line y1="134" y2="134" x1="90" x2="1150" class="ct-grid ct-vertical"></line><line y1="107" y2="107" x1="90" x2="1150" class="ct-grid ct-vertical"></line><line y1="80" y2="80" x1="90" x2="1150" class="ct-grid ct-vertical"></line></g><g><g class="ct-series ct-series-a"><path d="M90,350L90,256.04C101.778,266.84,113.556,288.44,125.333,288.44C137.111,288.44,148.889,159.92,160.667,159.92C172.444,159.92,184.222,280.88,196,280.88C207.778,280.88,219.556,185.84,231.333,185.84C243.111,185.84,254.889,230.112,266.667,245.24C278.444,260.368,290.222,281.96,302,281.96C313.778,281.96,325.556,230.12,337.333,230.12C349.111,230.12,360.889,296.365,372.667,300.32C384.444,304.275,396.222,306.8,408,306.8C419.778,306.8,431.556,299.573,443.333,288.44C455.111,277.307,466.889,103.76,478.667,103.76C490.444,103.76,502.222,329.893,514,332.72C525.778,335.547,537.556,335.6,549.333,337.04C561.111,338.48,572.889,341.36,584.667,341.36C596.444,341.36,608.222,307.217,620,304.64C631.778,302.063,643.556,300.32,655.333,300.32C667.111,300.32,678.889,335.96,690.667,335.96C702.444,335.96,714.222,330.56,726,330.56C737.778,330.56,749.556,337.04,761.333,337.04C773.111,337.04,784.889,318.68,796.667,318.68C808.444,318.68,820.222,330.56,832,330.56C843.778,330.56,855.556,328.88,867.333,328.4C879.111,327.92,890.889,328.017,902.667,327.32C914.444,326.623,926.222,294.92,938,294.92C949.778,294.92,961.556,295.7,973.333,297.08C985.111,298.46,996.889,346.76,1008.667,346.76C1020.444,346.76,1032.222,337.04,1044,337.04C1055.778,337.04,1067.556,350,1079.333,350C1091.111,350,1102.889,350,1114.667,350C1126.444,350,1138.222,348.56,1150,347.84L1150,350Z" class="ct-area"></path><path d="M90,256.04C101.778,266.84,113.556,288.44,125.333,288.44C137.111,288.44,148.889,159.92,160.667,159.92C172.444,159.92,184.222,280.88,196,280.88C207.778,280.88,219.556,185.84,231.333,185.84C243.111,185.84,254.889,230.112,266.667,245.24C278.444,260.368,290.222,281.96,302,281.96C313.778,281.96,325.556,230.12,337.333,230.12C349.111,230.12,360.889,296.365,372.667,300.32C384.444,304.275,396.222,306.8,408,306.8C419.778,306.8,431.556,299.573,443.333,288.44C455.111,277.307,466.889,103.76,478.667,103.76C490.444,103.76,502.222,329.893,514,332.72C525.778,335.547,537.556,335.6,549.333,337.04C561.111,338.48,572.889,341.36,584.667,341.36C596.444,341.36,608.222,307.217,620,304.64C631.778,302.063,643.556,300.32,655.333,300.32C667.111,300.32,678.889,335.96,690.667,335.96C702.444,335.96,714.222,330.56,726,330.56C737.778,330.56,749.556,337.04,761.333,337.04C773.111,337.04,784.889,318.68,796.667,318.68C808.444,318.68,820.222,330.56,832,330.56C843.778,330.56,855.556,328.88,867.333,328.4C879.111,327.92,890.889,328.017,902.667,327.32C914.444,326.623,926.222,294.92,938,294.92C949.778,294.92,961.556,295.7,973.333,297.08C985.111,298.46,996.889,346.76,1008.667,346.76C1020.444,346.76,1032.222,337.04,1044,337.04C1055.778,337.04,1067.556,350,1079.333,350C1091.111,350,1102.889,350,1114.667,350C1126.444,350,1138.222,348.56,1150,347.84" class="ct-line"></path><line x1="90" y1="256.04" x2="90.01" y2="256.04" class="ct-point" ct:value="87"></line><line x1="125.33333333333334" y1="288.44" x2="125.34333333333335" y2="288.44" class="ct-point" ct:value="57"></line><line x1="160.66666666666669" y1="159.92" x2="160.67666666666668" y2="159.92" class="ct-point" ct:value="176"></line><line x1="196" y1="280.88" x2="196.01" y2="280.88" class="ct-point" ct:value="64"></line><line x1="231.33333333333334" y1="185.84" x2="231.34333333333333" y2="185.84" class="ct-point" ct:value="152"></line><line x1="266.6666666666667" y1="245.24" x2="266.6766666666667" y2="245.24" class="ct-point" ct:value="97"></line><line x1="302" y1="281.96" x2="302.01" y2="281.96" class="ct-point" ct:value="63"></line><line x1="337.33333333333337" y1="230.12" x2="337.34333333333336" y2="230.12" class="ct-point" ct:value="111"></line><line x1="372.6666666666667" y1="300.32" x2="372.6766666666667" y2="300.32" class="ct-point" ct:value="46"></line><line x1="408" y1="306.8" x2="408.01" y2="306.8" class="ct-point" ct:value="40"></line><line x1="443.33333333333337" y1="288.44" x2="443.34333333333336" y2="288.44" class="ct-point" ct:value="57"></line><line x1="478.6666666666667" y1="103.75999999999999" x2="478.6766666666667" y2="103.75999999999999" class="ct-point" ct:value="228"></line><line x1="514" y1="332.72" x2="514.01" y2="332.72" class="ct-point" ct:value="16"></line><line x1="549.3333333333334" y1="337.04" x2="549.3433333333334" y2="337.04" class="ct-point" ct:value="12"></line><line x1="584.6666666666667" y1="341.36" x2="584.6766666666667" y2="341.36" class="ct-point" ct:value="8"></line><line x1="620" y1="304.64" x2="620.01" y2="304.64" class="ct-point" ct:value="42"></line><line x1="655.3333333333334" y1="300.32" x2="655.3433333333334" y2="300.32" class="ct-point" ct:value="46"></line><line x1="690.6666666666667" y1="335.96" x2="690.6766666666667" y2="335.96" class="ct-point" ct:value="13"></line><line x1="726" y1="330.56" x2="726.01" y2="330.56" class="ct-point" ct:value="18"></line><line x1="761.3333333333334" y1="337.04" x2="761.3433333333334" y2="337.04" class="ct-point" ct:value="12"></line><line x1="796.6666666666667" y1="318.68" x2="796.6766666666667" y2="318.68" class="ct-point" ct:value="29"></line><line x1="832" y1="330.56" x2="832.01" y2="330.56" class="ct-point" ct:value="18"></line><line x1="867.3333333333334" y1="328.4" x2="867.3433333333334" y2="328.4" class="ct-point" ct:value="20"></line><line x1="902.6666666666667" y1="327.32" x2="902.6766666666667" y2="327.32" class="ct-point" ct:value="21"></line><line x1="938" y1="294.92" x2="938.01" y2="294.92" class="ct-point" ct:value="51"></line><line x1="973.3333333333334" y1="297.08" x2="973.3433333333334" y2="297.08" class="ct-point" ct:value="49"></line><line x1="1008.6666666666667" y1="346.76" x2="1008.6766666666667" y2="346.76" class="ct-point" ct:value="3"></line><line x1="1044" y1="337.04" x2="1044.01" y2="337.04" class="ct-point" ct:value="12"></line><line x1="1079.3333333333335" y1="350" x2="1079.3433333333335" y2="350" class="ct-point" ct:value="0"></line><line x1="1114.6666666666667" y1="350" x2="1114.6766666666667" y2="350" class="ct-point" ct:value="0"></line><line x1="1150" y1="347.84" x2="1150.01" y2="347.84" class="ct-point" ct:value="2"></line></g></g><g class="ct-labels"><text x="85.5" y="370" width="35.333333333333336" height="40" class="ct-label ct-horizontal ct-end">9</text><text x="120.83333333333334" y="370" width="35.333333333333336" height="40" class="ct-label ct-horizontal ct-end">10</text><text x="156.16666666666669" y="370" width="35.33333333333333" height="40" class="ct-label ct-horizontal ct-end">11</text><text x="191.5" y="370" width="35.33333333333334" height="40" class="ct-label ct-horizontal ct-end">12</text><text x="226.83333333333334" y="370" width="35.33333333333334" height="40" class="ct-label ct-horizontal ct-end">13</text><text x="262.1666666666667" y="370" width="35.333333333333314" height="40" class="ct-label ct-horizontal ct-end">14</text><text x="297.5" y="370" width="35.33333333333334" height="40" class="ct-label ct-horizontal ct-end">15</text><text x="332.83333333333337" y="370" width="35.33333333333334" height="40" class="ct-label ct-horizontal ct-end">16</text><text x="368.1666666666667" y="370" width="35.333333333333314" height="40" class="ct-label ct-horizontal ct-end">17</text><text x="403.5" y="370" width="35.33333333333337" height="40" class="ct-label ct-horizontal ct-end">18</text><text x="438.83333333333337" y="370" width="35.333333333333314" height="40" class="ct-label ct-horizontal ct-end">19</text><text x="474.1666666666667" y="370" width="35.333333333333314" height="40" class="ct-label ct-horizontal ct-end">20</text><text x="509.5" y="370" width="35.33333333333337" height="40" class="ct-label ct-horizontal ct-end">21</text><text x="544.8333333333334" y="370" width="35.333333333333314" height="40" class="ct-label ct-horizontal ct-end">22</text><text x="580.1666666666667" y="370" width="35.333333333333314" height="40" class="ct-label ct-horizontal ct-end">23</text><text x="615.5" y="370" width="35.33333333333337" height="40" class="ct-label ct-horizontal ct-end">24</text><text x="650.8333333333334" y="370" width="35.33333333333337" height="40" class="ct-label ct-horizontal ct-end">25</text><text x="686.1666666666667" y="370" width="35.33333333333326" height="40" class="ct-label ct-horizontal ct-end">26</text><text x="721.5" y="370" width="35.33333333333337" height="40" class="ct-label ct-horizontal ct-end">27</text><text x="756.8333333333334" y="370" width="35.33333333333337" height="40" class="ct-label ct-horizontal ct-end">28</text><text x="792.1666666666667" y="370" width="35.33333333333326" height="40" class="ct-label ct-horizontal ct-end">29</text><text x="827.5" y="370" width="35.33333333333337" height="40" class="ct-label ct-horizontal ct-end">30</text><text x="862.8333333333334" y="370" width="35.33333333333337" height="40" class="ct-label ct-horizontal ct-end">31</text><text x="898.1666666666667" y="370" width="35.33333333333326" height="40" class="ct-label ct-horizontal ct-end">1</text><text x="933.5" y="370" width="35.33333333333337" height="40" class="ct-label ct-horizontal ct-end">2</text><text x="968.8333333333334" y="370" width="35.33333333333337" height="40" class="ct-label ct-horizontal ct-end">3</text><text x="1004.1666666666667" y="370" width="35.33333333333337" height="40" class="ct-label ct-horizontal ct-end">4</text><text x="1039.5" y="370" width="35.33333333333326" height="40" class="ct-label ct-horizontal ct-end">5</text><text x="1074.8333333333335" y="370" width="35.33333333333337" height="40" class="ct-label ct-horizontal ct-end">6</text><text x="1110.1666666666667" y="370" width="35.33333333333326" height="40" class="ct-label ct-horizontal ct-end">7</text><text x="1145.5" y="370" width="30" height="40" class="ct-label ct-horizontal ct-end">8</text><text y="354.5" x="80" height="27" width="60" class="ct-label ct-vertical ct-start">0</text><text y="327.5" x="80" height="27" width="60" class="ct-label ct-vertical ct-start">25</text><text y="300.5" x="80" height="27" width="60" class="ct-label ct-vertical ct-start">50</text><text y="273.5" x="80" height="27" width="60" class="ct-label ct-vertical ct-start">75</text><text y="246.5" x="80" height="27" width="60" class="ct-label ct-vertical ct-start">100</text><text y="219.5" x="80" height="27" width="60" class="ct-label ct-vertical ct-start">125</text><text y="192.5" x="80" height="27" width="60" class="ct-label ct-vertical ct-start">150</text><text y="165.5" x="80" height="27" width="60" class="ct-label ct-vertical ct-start">175</text><text y="138.5" x="80" height="27" width="60" class="ct-label ct-vertical ct-start">200</text><text y="111.5" x="80" height="27" width="60" class="ct-label ct-vertical ct-start">225</text><text y="84.5" x="80" height="30" width="60" class="ct-label ct-vertical ct-start">250</text></g><text class="ct-axis-title ct-label" x="620" y="400" dominant-baseline="text-after-edge" text-anchor="middle">Days</text><text class="ct-axis-title ct-label" x="20" y="215" transform="rotate(-90, 20, 215)" dominant-baseline="hanging" text-anchor="middle">Contributions</text></svg>
    </svg>
